<svg width="385" height="351" viewBox="0 0 385 351" fill="none" xmlns="http://www.w3.org/2000/svg">
<path d="M334.884 84.1922C330.308 88.7686 323.862 90.5046 317.621 88.8405L248.98 70.4631C247.901 70.1703 246.817 69.9391 245.733 69.7696L267.809 47.6891C272.334 43.3952 278.642 41.7876 284.697 43.4106L353.313 61.824C354.392 62.1219 355.471 62.353 356.554 62.5225L334.884 84.1922ZM192.218 338.235C164.556 338.235 137.986 331.311 114.203 318.255C118.234 316.76 122.001 314.47 125.199 311.275L164.096 272.383C171.809 264.669 174.737 253.77 171.927 243.235L159.741 197.728L205.208 209.927C207.853 210.651 210.519 211 213.159 211C221.007 211 228.588 207.888 234.413 202.063L273.305 163.172C281.066 155.411 283.989 144.507 281.138 134.024L268.944 88.5477L314.447 100.731C317.077 101.429 319.732 101.773 322.357 101.773C327.031 101.773 331.556 100.556 335.711 98.4555C348.357 122.005 355.096 148.431 355.096 175.36C355.096 265.172 282.032 338.235 192.218 338.235ZM27.3382 288.157L49.3879 266.107C53.9165 261.813 60.228 260.216 66.2745 261.828L134.923 280.252C135.993 280.54 137.067 280.766 138.142 280.935L116.499 302.574C111.9 307.166 105.433 308.912 99.2054 307.258L30.5648 288.84C29.4934 288.552 28.4158 288.326 27.3382 288.157ZM139.775 179.623C138.703 179.341 137.628 179.115 136.55 178.945L158.595 156.895C163.124 152.602 169.436 151.009 175.484 152.617L244.131 171.041C245.199 171.323 246.278 171.554 247.351 171.724L225.712 193.363C221.089 197.98 214.633 199.732 208.418 198.052L139.775 179.623ZM155.391 263.683C150.796 268.269 144.322 270.021 138.096 268.362L128.672 265.835L114.652 213.461C113.036 207.415 114.62 201.113 118.89 196.604C119.009 196.475 119.225 196.249 119.331 196.116C119.397 196.064 119.424 195.982 119.488 195.931C119.554 195.869 119.639 195.854 119.704 195.792C124.233 191.498 130.542 189.891 136.596 191.514L146.018 194.046L160.04 246.415C161.702 252.65 159.965 259.106 155.391 263.683ZM255.22 84.8753L269.258 137.234C270.942 143.423 269.201 149.869 264.604 154.471C260.012 159.068 253.536 160.809 247.305 159.15L237.885 156.623L223.853 104.223C222.219 98.2192 223.801 91.9325 228.1 87.3921C228.219 87.2688 228.404 87.0685 228.511 86.9349C228.578 86.8784 228.609 86.7911 228.676 86.7346C228.748 86.6679 228.845 86.6524 228.917 86.5857C233.442 82.2867 239.734 80.6996 245.759 82.3432L255.22 84.8753ZM192.218 12.4803C219.713 12.4803 246.165 19.3474 269.91 32.3009C266.263 33.6158 262.853 35.6446 259.838 38.3617C259.807 38.3822 259.771 38.3874 259.74 38.4079C259.673 38.4644 259.617 38.5414 259.55 38.6031C259.447 38.6955 259.329 38.7726 259.227 38.8753L220.329 77.7668C220.293 77.8079 220.283 77.8593 220.242 77.9004C219.821 78.2856 219.379 78.6605 219.009 79.0971C211.854 86.7655 209.225 97.3512 211.973 107.428L224.161 152.941L178.669 140.732C168.701 138.076 158.33 140.619 150.606 147.583C150.574 147.609 150.534 147.614 150.502 147.64C150.43 147.696 150.376 147.779 150.304 147.84C150.211 147.922 150.107 147.994 150.013 148.082L111.12 186.978C111.086 187.009 111.077 187.055 111.045 187.086C110.614 187.482 110.171 187.867 109.804 188.303C102.685 195.931 100.053 206.506 102.765 216.64L114.949 262.152L69.459 249.943C62.3201 248.038 54.9834 248.839 48.546 251.977C36.0145 228.52 29.3408 202.192 29.3408 175.36C29.3408 85.5482 102.407 12.4803 192.218 12.4803ZM373.818 45.2596C369.195 49.8822 362.733 51.6388 356.518 49.9438L294.718 33.359C264.717 11.6739 229.323 0.179003 192.218 0.179003C95.6228 0.179003 17.0353 78.7632 17.0353 175.36C17.0353 204.863 24.5405 233.815 38.6211 259.476L1.90938 296.185C-0.470275 298.563 -0.496464 302.415 1.85134 304.824C4.19658 307.238 8.0483 307.31 10.4922 304.998C15.0265 300.705 21.3416 299.107 27.3844 300.725L89.9169 317.505C119.798 339.093 155.129 350.541 192.218 350.541C288.812 350.541 367.402 271.952 367.402 175.36C367.402 145.729 359.816 116.658 345.594 90.8847L382.518 53.9604C383.72 52.7585 384.321 51.1868 384.321 49.61C384.321 48.0383 383.72 46.4615 382.518 45.2596C380.115 42.8559 376.221 42.8559 373.818 45.2596Z" fill="#F1FCEB"/>
</svg>
