<svg width="215" height="54" viewBox="0 0 215 54" fill="none" xmlns="http://www.w3.org/2000/svg">
<path d="M9.62988 42V30.0336H21.1144V42H27.6196V12.2848H21.1144V24.0103H9.62988V12.2848H3.12466V42H9.62988ZM42.3435 42.522C47.8449 42.522 51.8203 39.671 52.5431 35.2137H46.8811C46.4394 36.6593 44.793 37.5026 42.464 37.5026C39.7334 37.5026 38.2477 36.2577 37.8863 33.6075L52.4628 33.5272V31.9611C52.4628 25.4157 48.5275 21.2797 42.2231 21.2797C36.1596 21.2797 31.9432 25.6567 31.9432 31.9209C31.9432 38.1049 36.28 42.522 42.3435 42.522ZM42.2632 26.2991C44.7529 26.2991 46.319 27.6644 46.319 29.7927H37.9666C38.4485 27.3833 39.8137 26.2991 42.2632 26.2991ZM62.3087 42V11.7226H56.1248V42H62.3087ZM69.9998 18.79C71.9273 18.79 73.4933 17.224 73.4933 15.2563C73.4933 13.2887 71.9273 11.7628 69.9998 11.7628C68.0322 11.7628 66.4661 13.2887 66.4661 15.2563C66.4661 17.224 68.0322 18.79 69.9998 18.79ZM66.948 42H73.1319V21.9222H66.948V42ZM82.8709 42L86.244 36.2176L89.6974 42H96.805L90.4202 32.1619L97.0459 21.9222H90.1391L86.6857 28.0258L82.9914 21.9222H75.8437L82.5899 32.2823L75.8437 42H82.8709ZM99.7705 51.6374H105.954V39.9922C107.119 41.5181 109.689 42.5622 112.46 42.5622C118.443 42.5622 121.896 37.9844 121.896 31.6398C121.896 25.1748 118.001 21.2797 112.42 21.2797C109.568 21.2797 107.039 22.5245 105.914 24.3717L105.593 21.9222H99.7705V51.6374ZM105.995 31.9611C105.995 28.9494 108.002 26.9416 110.894 26.9416C113.825 26.9416 115.672 28.9896 115.672 31.9611C115.672 34.9326 113.825 36.9805 110.894 36.9805C108.002 36.9805 105.995 34.9728 105.995 31.9611ZM131.64 42V11.7226H125.456V42H131.64ZM135.195 31.9209C135.195 38.2655 139.853 42.4819 146.278 42.4819C152.663 42.4819 157.321 38.2655 157.321 31.9209C157.321 25.5763 152.663 21.3198 146.278 21.3198C139.853 21.3198 135.195 25.5763 135.195 31.9209ZM141.419 31.8808C141.419 28.8691 143.387 26.8613 146.278 26.8613C149.129 26.8613 151.097 28.8691 151.097 31.8808C151.097 34.9326 149.129 36.9404 146.278 36.9404C143.387 36.9404 141.419 34.9326 141.419 31.8808ZM174.719 21.9222C173.876 21.7214 173.073 21.6411 172.35 21.6411C169.66 21.6411 167.893 22.9662 167.05 24.9339L166.728 21.9623H160.906V42H167.09V33.2862C167.09 29.3108 169.218 27.7447 172.752 27.7447H174.719V21.9222ZM186.574 42.522C192.076 42.522 196.051 39.671 196.774 35.2137H191.112C190.67 36.6593 189.024 37.5026 186.695 37.5026C183.964 37.5026 182.479 36.2577 182.117 33.6075L196.694 33.5272V31.9611C196.694 25.4157 192.758 21.2797 186.454 21.2797C180.39 21.2797 176.174 25.6567 176.174 31.9209C176.174 38.1049 180.511 42.522 186.574 42.522ZM186.494 26.2991C188.984 26.2991 190.55 27.6644 190.55 29.7927H182.197C182.679 27.3833 184.045 26.2991 186.494 26.2991ZM214.169 21.9222C213.326 21.7214 212.523 21.6411 211.8 21.6411C209.11 21.6411 207.343 22.9662 206.5 24.9339L206.178 21.9623H200.356V42H206.54V33.2862C206.54 29.3108 208.668 27.7447 212.202 27.7447H214.169V21.9222Z" fill="#66C72D"/>
<rect x="65.0439" y="11.0846" width="9.82977" height="9.82977" fill="#F1FCEB"/>
<path d="M72.5977 14.4714C72.5157 14.5534 72.4003 14.5844 72.2885 14.5546L71.0593 14.2255C71.04 14.2203 71.0206 14.2162 71.0012 14.2131L71.3965 13.8177C71.4775 13.7408 71.5905 13.712 71.6989 13.7411L72.9277 14.0708C72.947 14.0762 72.9663 14.0803 72.9857 14.0833L72.5977 14.4714ZM70.0428 19.0208C69.5475 19.0208 69.0716 18.8968 68.6457 18.663C68.7179 18.6363 68.7854 18.5952 68.8427 18.538L69.5392 17.8416C69.6773 17.7034 69.7298 17.5082 69.6795 17.3196L69.4612 16.5046L70.2754 16.7231C70.3228 16.736 70.3706 16.7423 70.4178 16.7423C70.5584 16.7423 70.6941 16.6866 70.7984 16.5823L71.4949 15.8858C71.6339 15.7468 71.6862 15.5515 71.6352 15.3638L71.4168 14.5494L72.2317 14.7676C72.2788 14.7801 72.3263 14.7862 72.3733 14.7862C72.457 14.7862 72.5381 14.7644 72.6125 14.7268C72.8389 15.1486 72.9596 15.6218 72.9596 16.104C72.9596 17.7124 71.6512 19.0208 70.0428 19.0208ZM67.0902 18.124L67.485 17.7292C67.5661 17.6523 67.6792 17.6236 67.7874 17.6525L69.0168 17.9825C69.036 17.9876 69.0552 17.9917 69.0744 17.9947L68.6869 18.3822C68.6045 18.4644 68.4887 18.4957 68.3772 18.4661L67.148 18.1363C67.1288 18.1311 67.1095 18.1271 67.0902 18.124ZM69.1037 16.1804C69.0845 16.1753 69.0652 16.1713 69.0459 16.1682L69.4407 15.7734C69.5218 15.6965 69.6348 15.668 69.7432 15.6968L70.9725 16.0267C70.9916 16.0318 71.0109 16.0359 71.0301 16.0389L70.6426 16.4264C70.5599 16.5091 70.4442 16.5405 70.3329 16.5104L69.1037 16.1804ZM69.3833 17.6857C69.301 17.7679 69.1851 17.7992 69.0736 17.7695L68.9049 17.7243L68.6538 16.7864C68.6248 16.6781 68.6532 16.5652 68.7297 16.4845C68.7318 16.4822 68.7357 16.4781 68.7376 16.4757C68.7388 16.4748 68.7392 16.4733 68.7404 16.4724C68.7416 16.4713 68.7431 16.471 68.7443 16.4699C68.8254 16.393 68.9383 16.3643 69.0468 16.3933L69.2155 16.4387L69.4666 17.3765C69.4964 17.4882 69.4653 17.6038 69.3833 17.6857ZM71.1711 14.4836L71.4224 15.4213C71.4526 15.5321 71.4214 15.6475 71.3391 15.73C71.2569 15.8123 71.1409 15.8435 71.0293 15.8138L70.8606 15.7685L70.6093 14.8301C70.5801 14.7226 70.6084 14.61 70.6854 14.5287C70.6875 14.5265 70.6908 14.5229 70.6928 14.5205C70.694 14.5195 70.6945 14.5179 70.6957 14.5169C70.697 14.5157 70.6987 14.5155 70.7 14.5143C70.7811 14.4373 70.8937 14.4089 71.0016 14.4383L71.1711 14.4836ZM70.0428 13.1872C70.5352 13.1872 71.0089 13.3102 71.4341 13.5421C71.3688 13.5657 71.3077 13.602 71.2538 13.6507C71.2532 13.651 71.2526 13.6511 71.252 13.6515C71.2508 13.6525 71.2498 13.6539 71.2486 13.655C71.2468 13.6566 71.2446 13.658 71.2428 13.6599L70.5462 14.3563C70.5456 14.3571 70.5454 14.358 70.5447 14.3587C70.5371 14.3656 70.5292 14.3723 70.5226 14.3802C70.3945 14.5175 70.3474 14.7071 70.3966 14.8875L70.6149 15.7026L69.8002 15.4839C69.6217 15.4364 69.436 15.4819 69.2977 15.6066C69.2971 15.6071 69.2964 15.6072 69.2958 15.6076C69.2945 15.6086 69.2935 15.6101 69.2922 15.6112C69.2906 15.6127 69.2887 15.614 69.287 15.6155L68.5905 16.3121C68.5899 16.3127 68.5898 16.3135 68.5892 16.314C68.5815 16.3211 68.5735 16.328 68.567 16.3358C68.4395 16.4724 68.3924 16.6618 68.4409 16.8433L68.6591 17.6583L67.8445 17.4397C67.7166 17.4056 67.5852 17.4199 67.47 17.4761C67.2456 17.056 67.126 16.5846 67.126 16.104C67.126 14.4957 68.4345 13.1872 70.0428 13.1872ZM73.2949 13.7742C73.2121 13.857 73.0964 13.8884 72.9851 13.8581L71.8784 13.5611C71.3411 13.1727 70.7073 12.9669 70.0428 12.9669C68.313 12.9669 66.9057 14.3742 66.9057 16.104C66.9057 16.6324 67.0401 17.1509 67.2922 17.6104L66.6348 18.2678C66.5922 18.3104 66.5917 18.3794 66.6338 18.4225C66.6758 18.4657 66.7447 18.467 66.7885 18.4256C66.8697 18.3487 66.9828 18.3201 67.091 18.3491L68.2108 18.6496C68.7459 19.0362 69.3786 19.2412 70.0428 19.2412C71.7726 19.2412 73.18 17.8338 73.18 16.104C73.18 15.5734 73.0441 15.0528 72.7895 14.5913L73.4507 13.93C73.4722 13.9085 73.483 13.8803 73.483 13.8521C73.483 13.824 73.4722 13.7957 73.4507 13.7742C73.4077 13.7311 73.3379 13.7311 73.2949 13.7742Z" fill="#66C72D"/>
<path d="M70.4695 18.0613C70.2664 18.1053 70.0539 18.1176 69.8455 18.0973C69.7848 18.0911 69.731 18.1357 69.7251 18.1963C69.7192 18.2568 69.7635 18.3107 69.8241 18.3167C69.8964 18.3237 69.9698 18.3273 70.0425 18.3273C70.2019 18.3273 70.3613 18.3103 70.5162 18.2767C70.5758 18.2637 70.6135 18.205 70.6006 18.1456C70.5876 18.0861 70.5288 18.048 70.4695 18.0613Z" fill="#66C72D"/>
<path d="M71.9788 16.9579C71.9246 16.9306 71.8583 16.9522 71.8308 17.0066C71.7489 17.1687 71.6449 17.3192 71.522 17.4538C71.4809 17.4988 71.4842 17.5686 71.529 17.6095C71.5502 17.6288 71.5768 17.6383 71.6034 17.6383C71.6332 17.6383 71.663 17.6263 71.6848 17.6024C71.8212 17.453 71.9365 17.2859 72.0275 17.106C72.0549 17.0517 72.0332 16.9854 71.9788 16.9579Z" fill="#66C72D"/>
</svg>
